/* XPM */
static char *_1ae77ff8de44036ed27fdc8b4f504836i6IA04cDbxJ8wIv[] = {
/* columns rows colors chars-per-pixel */
"32 32 52 1 ",
"  c #9CFF6A",
". c #9DFF6B",
"X c #A0FE6C",
"o c #A1FF6D",
"O c #A6FE70",
"+ c #A7FE70",
"@ c #ADFE74",
"# c #ACFF74",
"$ c #ACFE75",
"% c #B1FE77",
"& c #B4FE7A",
"* c #B5FE7A",
"= c #B4FF7B",
"- c #B8FF7F",
"; c #BBFF7E",
": c #BEFF84",
"> c #BFFF84",
", c #BFFF85",
"< c #C0FF86",
"1 c #C1FF87",
"2 c #C3FF86",
"3 c #C2FF87",
"4 c #C5FE8A",
"5 c #C4FE8B",
"6 c #C4FF8B",
"7 c #C8FF90",
"8 c #C9FF90",
"9 c #C8FF91",
"0 c #CDFF94",
"q c #CCFF95",
"w c #CEFE9C",
"e c #CFFE9C",
"r c #CFFF9C",
"t c #D3FEA4",
"y c #D3FFA4",
"u c #D2FEA5",
"i c #D3FFA5",
"p c #D5FEA8",
"a c #D5FEA9",
"s c #D3FEAC",
"d c #D3FFAD",
"f c #D5FEAD",
"g c #D5FFAD",
"h c #D4FFB2",
"j c #D4FEB3",
"k c #D3FEB4",
"l c #D3FFB4",
"z c #D2FFB5",
"x c #D1FEBE",
"c c #D0FFBE",
"v c #CFFFC2",
"b c #CFFFC3",
/* pixels */
"11@@--77q7yrrr57qqkkys1111saxkjx",
"11@@--77q5yrqr97qqkkyt:111dgvxjx",
"--111111ddxxwrrq>5sytt55pgkgyagg",
">>1111<1ddxxrrqq1>urtr55pykkaygg",
"yyq711paxxyr:>77$$5557&@7qkkxxrr",
"ddqq<<kkxxrr&&57$$5577@&75kkvxrr",
"xxrrgjxxry@@&&kgsyysjk7q@O57xxvx",
"xxrrgdxxry$+&-adtpayjk77OO77xvxx",
"dsagxxee&%1>akvxxxeexjxxqq&&77bx",
"ddkdxxee&&--gkxxxbepjxjx7q&&7qxx",
"55rrqq@@1>gdxxuupa7777xxkkq7@o77",
"15rrq7@@16gjvxuuyr0776xxkgqq+@75",
"-&qr1>-&dkxxgd55>:55%&77xkkk51::",
"--rr61-&kkxvdd>5:-55%%76xxvk11:-",
"rrxxrrrrddyyuyyu  5>65o.55kkkart",
"rqkxrrqrddyyuuyy  1155.+55kkdsrr",
"7qgguurqdadgkkdgrrrr@&-&pejjgg16",
"qqgaawwrgdgdkkgdrrrr&&&&ayxjjg11",
"&&rr55&$gdxxkkvkkkwr001566ee0q@&",
"&&rr55&&gyxvkkkkxkrw071>61eeqq&@",
"qqggyy$$&$gdvxgyrtyuwq$$1:dgadqq",
"eedddy$$$&ddxxyayrydqq$$15dkgdqr",
"rrgdkxyd&&@&rtaaqr77.O:-kkxxrq75",
"rrdaxxat&&&$raayrrq7$@--kkvxrr77",
"55o@rykbdd$+-$qqqqOO$&ddvxqq@o11",
"55@@yyxjdd$$%&0rqq@$$&ydvxeq@@:1",
"qq&@@oayvvdy--6676--dgdk7eoX&-0r",
"qq&@ooyyxvdy>-6677--dgkdq7oo-:qr",
"qqe7@$-&kgkkrryrprttcxrro >5tyyw",
"eq00$o&%kaxkyryprtdabbrr. 15yyyw",
"pa;&1616qqrr557577rree%%55kgkkau",
"ya--1266qqrr555575yree&&55gkkkuy"
};
