/* XPM */
static char *_2e1a19910434dfcc74f6ee0594f0812WlfVhhidameWUWpU[] = {
/* columns rows colors chars-per-pixel */
"32 32 158 2 ",
"   c gray10",
".  c #1B1A1A",
"X  c #1A1B1A",
"o  c #1B1B1A",
"O  c #1A1A1B",
"+  c #1B1A1B",
"@  c #132D2D",
"#  c #232323",
"$  c #252424",
"%  c #242524",
"&  c #242425",
"*  c #252425",
"=  c #282828",
"-  c #292828",
";  c #282928",
":  c #292928",
">  c #282829",
",  c #282929",
"<  c #2A2A2B",
"1  c #2E2F2E",
"2  c #2E2E2F",
"3  c #2F2E2F",
"4  c #2D3530",
"5  c gray19",
"6  c #313030",
"7  c #303130",
"8  c #333232",
"9  c #343434",
"0  c gray21",
"q  c #373736",
"w  c #373737",
"e  c #3C3032",
"r  c #3A3334",
"t  c #393838",
"y  c #393938",
"u  c #383839",
"i  c #383939",
"p  c #393939",
"a  c #3D3C3C",
"s  c #3D3C3D",
"d  c #3C3D3D",
"f  c gray24",
"g  c #413022",
"h  c #413023",
"j  c #533928",
"k  c #503A2C",
"l  c #513A2C",
"z  c #423334",
"x  c #423235",
"c  c #453536",
"v  c #453537",
"b  c #4B3E38",
"n  c #5E422E",
"m  c #4E4135",
"M  c #64432A",
"N  c #65442C",
"B  c #674B38",
"V  c #794F33",
"C  c #7C5032",
"Z  c #7D5032",
"A  c #7C5132",
"S  c #7D5132",
"D  c #7D5033",
"F  c #7E5336",
"G  c #343852",
"H  c #343958",
"J  c #313B68",
"K  c #343F6D",
"L  c #343E75",
"P  c #343F75",
"I  c #244746",
"U  c #2B4D4C",
"Y  c #36417A",
"T  c #32417D",
"R  c #375474",
"E  c #026A6A",
"W  c #434242",
"Q  c #454240",
"!  c #444444",
"~  c #444544",
"^  c #454544",
"/  c #454445",
"(  c #4B4A4B",
")  c #4E4E4E",
"_  c #4F4F4E",
"`  c #5B4E45",
"'  c #5A4549",
"]  c #5B4549",
"[  c #5F524A",
"{  c #565656",
"}  c #565756",
"|  c #575756",
" . c #565757",
".. c gray34",
"X. c #685242",
"o. c #65574F",
"O. c #6F5A4B",
"+. c #655950",
"@. c #615A69",
"#. c #4C796A",
"$. c #8A5D3C",
"%. c #85634C",
"&. c #966646",
"*. c #8F6A52",
"=. c #806B5C",
"-. c #806A5D",
";. c #8F735F",
":. c #997458",
">. c #A27350",
",. c #A37351",
"<. c #A47B5E",
"1. c #947864",
"2. c #BC8865",
"3. c #BD8865",
"4. c #BA9074",
"5. c #C28E6A",
"6. c #C29273",
"7. c #CD9B7A",
"8. c #D6A27F",
"9. c #344482",
"0. c #354482",
"q. c #275381",
"w. c #34649E",
"e. c #48569B",
"r. c #606A9E",
"t. c #6F6D9C",
"y. c #6E6C9D",
"u. c #4758A6",
"i. c #4659A6",
"p. c #4758A7",
"a. c #028888",
"s. c #028988",
"d. c #028D8D",
"f. c #038D8D",
"g. c #039899",
"h. c #348B83",
"j. c #3E9F96",
"k. c #11A09F",
"l. c #37A199",
"z. c #04A0A0",
"x. c #04A6A6",
"c. c #04A6A7",
"v. c #05A7A7",
"b. c #04B0B0",
"n. c #05B0B0",
"m. c #05B1B0",
"M. c #05B0B1",
"N. c #38A9A1",
"B. c #5A9486",
"V. c #5B9486",
"C. c #919D84",
"Z. c #93A68E",
"A. c #92AB94",
"S. c #E0A982",
"D. c #E1A982",
"F. c #E1A883",
"G. c #E0A983",
"H. c #E1A983",
/* pixels */
"p p u p u 2 h n Z Z Z Z Z Z C C C C C C C C C j . . ; ~ ~ ~ ~ ~ ",
"p p p p u 2 V F Z Z V Z Z Z C $.C C C $.C C C C g . ; ~ ~ ~ ~ ~ ",
"p p p u r 3 V $.V Z Z Z Z A A A C C C C C C C $.g . o m W ~ ~ ~ ",
"p u u u y < V V V V $.Z Z A A A C C C V C C C C g . $ m ~ ~ ~ ~ ",
"y y y y p 1 S S S S V Z F S S S C C C C C C C C h X : ~ ~ ~ ~ ~ ",
"2 7 7 1 3 8 $.V V S &.5.2.,.S S C C $.$.C C $.$.N j $ a d f f f ",
": : - - - 8 V V V S ,.H.S.5.$.$.$.&.$.&.$.$.$.&.F N % p p i i p ",
": : - - - 6 Z Z F S ,.H.S.S.H.H.8.8.8.8.8.8.8.8.X.X % p p i p i ",
"X X X X + O 3.3.3.V ,.F.H.H.H.%.*.H.F.F.H.:.%.H.X.X O O X + X + ",
"X X O O + O F.F.F.V ,.F.H.F.F.l B F.H.F.G.B l H.X.. O O O X X + ",
"* : - - > > G.G.S.V ,.F.F.F.D.l B F.F.F.G.B l H.O.- - > - - * - ",
"/ / / W / / F.G.8.3.5.F.F.F.D.:.<.H.F.F.F.<.:.S.-.! ! ! ! ~ ! ! ",
"/ W / ~ ~ ~ G.G.S.S.S.S.S.F.H.H.H.H.H.S.S.F.F.S.=.W ~ ! ! ~ ~ ~ ",
"f f f f f W G.G.S.S.S.S.F.F.H.H.H.H.S.S.S.F.F.S.=.! ! c f f a a ",
"p p p p p b 1.4.F.F.F.S.F.F.F.H.S.S.S.S.F.F.8.;.o.! U x p p p u ",
"p p p p p U m 1.F.F.F.S.F.F.F.F.F.S.S.S.S.F.7.p ~ ! ! p p p p u ",
"p y p p y p p p : n.M.M.M.M.b.b.b.b.b.v.s.U p y : : - - = - - = ",
"p p p y p p i p : M.M.n.M.M.M.b.b.b.M.v.s.U p p - : - - - - ; ; ",
"2 8 2 2 2 8 5 8 % m.n.n.M.M.b.b.m.m.M.v.s.I 3 7 * * * * & > * * ",
"O X X X X X O X X f.f.f.f.g.b.b.n.m.m.z.E @ + + X X X X O X X X ",
"O X X X X + + X X V.V.V.B.j.b.b.n.n.b.k.#.4 + + O X X X O O O X ",
"/ / W / / f r i O F.G.H.F.A.b.b.n.n.b.N.4.` 7 3 O X * w 0 0 w w ",
"} } } { { ( ! / X G.G.G.F.A.b.b.n.n.n.N.6.+.y p O O - / ~ ~ W / ",
"} } } } { ( ! / O G.G.F.F.Z.c.c.v.v.v.j.6.+.p p X O - ~ ~ / W ~ ",
"/ / ! ! ! 7 : : + S.F.F.F.C.a.d.a.a.a.h.6.[ p p X X 2 { { { } } ",
"~ ~ ! ! ! 8 : : + b @.t.t.r.w.R q.q.R R +.W p p + + 2 { { { } } ",
"! ! G m W 7 : : X X H p.i.u.u.0.T L T Y f 0 0 9 X X : ) ) ) _ _ ",
"y y y y 0 4 : : . X H p.i.i.u.0.L 9.T J : : - < X + # p p p p p ",
"u p p p p 2 : : O O H p.u.i.i.9.T T T J : : < - X X % i p p p p ",
"p p p u p 2 : : O X G e.e.e.e.Y Y L L J : < : - O X * i p p r p ",
"p p u p u 5 : - X O e ] ] ] ' c x x e e ; ; - - O O & i p i p p ",
"p p u u u 4 - - X X 0 ] ] ] ' c z x x e ; ; - - o X * w p i p i "
};
